<?xml version="1.0" encoding="UTF-8"?>
<svg width="49px" height="47px" viewBox="0 0 49 47" version="1.1" xmlns="http://www.w3.org/2000/svg" xmlns:xlink="http://www.w3.org/1999/xlink">
    <title>Group 2 Copy</title>
    <g id="Page-1" stroke="none" stroke-width="1" fill="none" fill-rule="evenodd">
        <g id="Group-2-Copy">
            <rect id="Rectangle" fill="#95F9C3" x="6" y="8" width="38" height="19"></rect>
            <path d="M0,8.70369867 C0,3.89678515 3.917515,0 8.75,0 L40.25,0 C45.08245,0 49,3.89678515 49,8.70369867 L49,28.9595729 C49,33.7665212 45.08245,37.6633412 40.25,37.6633412 L35.62335,37.6633412 C34.46905,37.6633412 33.3466,38.041778 32.4303,38.7401628 L22.064385,46.6410323 C21.58149,47.0090247 20.94113,47.1012839 20.37315,46.8843877 C19.805205,46.6678397 19.391155,46.1731214 19.279645,45.5781366 L18.595535,41.9285017 C18.132135,39.455955 15.96287,37.6633412 13.43447,37.6633412 L8.75,37.6633412 C3.917515,37.6633412 0,33.7665212 0,28.9595729 L0,8.70369867 Z M12,14.8 C12,13.805896 11.32842,13 10.5,13 C9.67158,13 9,13.805896 9,14.8 L9,20.2 C9,21.194104 9.67158,22 10.5,22 C11.32842,22 12,21.194104 12,20.2 L12,14.8 Z M38.5,13 C39.3283,13 40,13.805896 40,14.8 L40,20.2 C40,21.194104 39.3283,22 38.5,22 C37.6717,22 37,21.194104 37,20.2 L37,14.8 C37,13.805896 37.6717,13 38.5,13 Z M19,13.7142857 C19,12.76752 18.32842,12 17.5,12 C16.67158,12 16,12.76752 16,13.7142857 L16,22.2857143 C16,23.23248 16.67158,24 17.5,24 C18.32842,24 19,23.23248 19,22.2857143 L19,13.7142857 Z M31.5,12 C32.3283,12 33,12.76752 33,13.7142857 L33,22.2857143 C33,23.23248 32.3283,24 31.5,24 C30.67158,24 30,23.23248 30,22.2857143 L30,13.7142857 C30,12.76752 30.67158,12 31.5,12 Z M26,11.6666667 C26,10.7462 25.32842,10 24.5,10 C23.67158,10 23,10.7462 23,11.6666667 L23,23.3333333 C23,24.2538 23.67158,25 24.5,25 C25.32842,25 26,24.2538 26,23.3333333 L26,11.6666667 Z" id="Shape" fill="#0B3866"></path>
        </g>
    </g>
</svg>